<?xml version="1.0" encoding="UTF-8"?>
<!DOCTYPE svg PUBLIC "-//W3C//DTD SVG 1.1//EN" "http://www.w3.org/Graphics/SVG/1.1/DTD/svg11.dtd">
<svg xmlns="http://www.w3.org/2000/svg" version="1.1" width="500px" height="120px" style="shape-rendering:geometricPrecision; text-rendering:geometricPrecision; image-rendering:optimizeQuality; fill-rule:evenodd; clip-rule:evenodd" xmlns:xlink="http://www.w3.org/1999/xlink">
<g><path style="opacity:1" fill="#fdfefe" d="M -0.5,-0.5 C 166.167,-0.5 332.833,-0.5 499.5,-0.5C 499.5,39.5 499.5,79.5 499.5,119.5C 332.833,119.5 166.167,119.5 -0.5,119.5C -0.5,79.5 -0.5,39.5 -0.5,-0.5 Z"/></g>
<g><path style="opacity:1" fill="#07b45f" d="M 109.5,7.5 C 124.5,7.5 139.5,7.5 154.5,7.5C 154.667,32.8355 154.5,58.1689 154,83.5C 150.952,99.548 141.452,109.381 125.5,113C 111.504,113.5 97.504,113.667 83.5,113.5C 83.3334,87.8312 83.5,62.1645 84,36.5C 87.4141,22.2586 95.9141,12.592 109.5,7.5 Z"/></g>
<g><path style="opacity:1" fill="#0ab460" d="M 217.5,51.5 C 213.167,51.5 208.833,51.5 204.5,51.5C 204.815,47.6286 204.482,43.9619 203.5,40.5C 200.422,36.2166 196.422,35.3833 191.5,38C 190.874,38.7504 190.374,39.5838 190,40.5C 189.333,54.8333 189.333,69.1667 190,83.5C 192.877,88.7406 197.044,89.9072 202.5,87C 203.126,86.2496 203.626,85.4162 204,84.5C 204.499,79.8452 204.666,75.1785 204.5,70.5C 202.167,70.5 199.833,70.5 197.5,70.5C 197.5,66.8333 197.5,63.1667 197.5,59.5C 204.167,59.5 210.833,59.5 217.5,59.5C 217.5,68.1667 217.5,76.8333 217.5,85.5C 214.385,95.4829 207.551,100.483 197,100.5C 187.034,100.519 180.368,95.8525 177,86.5C 176.333,70.1667 176.333,53.8333 177,37.5C 182.343,26.2477 191.176,22.0811 203.5,25C 215.32,29.7959 219.986,38.6292 217.5,51.5 Z"/></g>
<g><path style="opacity:1" fill="#0ab460" d="M 310.5,26.5 C 316.093,26.1934 321.593,26.5268 327,27.5C 330.333,42.1667 333.667,56.8333 337,71.5C 340.333,56.8333 343.667,42.1667 347,27.5C 352.407,26.5268 357.907,26.1934 363.5,26.5C 363.5,50.5 363.5,74.5 363.5,98.5C 359.167,98.5 354.833,98.5 350.5,98.5C 350.667,86.4954 350.5,74.4954 350,62.5C 347.624,74.4227 345.791,86.4227 344.5,98.5C 339.5,98.5 334.5,98.5 329.5,98.5C 328.209,86.4227 326.376,74.4227 324,62.5C 323.5,74.4954 323.333,86.4954 323.5,98.5C 319.167,98.5 314.833,98.5 310.5,98.5C 310.5,74.5 310.5,50.5 310.5,26.5 Z"/></g>
<g><path style="opacity:1" fill="#7a7a7a" d="M 463.5,30.5 C 459.833,30.5 456.167,30.5 452.5,30.5C 452.5,49.8333 452.5,69.1667 452.5,88.5C 451.503,69.0071 451.17,49.3404 451.5,29.5C 455.702,29.1832 459.702,29.5166 463.5,30.5 Z"/></g>
<g><path style="opacity:1" fill="#030303" d="M 463.5,30.5 C 463.5,35.8333 463.5,41.1667 463.5,46.5C 466.962,47.4816 470.629,47.815 474.5,47.5C 474.5,50.5 474.5,53.5 474.5,56.5C 470.833,56.5 467.167,56.5 463.5,56.5C 463.172,67.0135 463.506,77.3468 464.5,87.5C 472.008,91.6885 475.342,89.3551 474.5,80.5C 478.167,80.5 481.833,80.5 485.5,80.5C 485.5,82.5 485.5,84.5 485.5,86.5C 484.158,95.9372 478.658,100.604 469,100.5C 460.473,100.5 454.973,96.5005 452.5,88.5C 452.5,69.1667 452.5,49.8333 452.5,30.5C 456.167,30.5 459.833,30.5 463.5,30.5 Z"/></g>
<g><path style="opacity:1" fill="#04b45e" d="M 3.5,43.5 C 60.467,33.1336 83.8003,56.467 73.5,113.5C 17.2349,123.235 -6.09848,99.9016 3.5,43.5 Z"/></g>
<g><path style="opacity:1" fill="#060606" d="M 242.5,45.5 C 256.994,44.329 263.328,50.9956 261.5,65.5C 257.833,65.5 254.167,65.5 250.5,65.5C 251.671,58.1731 248.671,55.0064 241.5,56C 240.299,56.9025 239.465,58.0692 239,59.5C 238.5,72.4957 238.333,85.4957 238.5,98.5C 234.5,98.5 230.5,98.5 226.5,98.5C 226.5,81.1667 226.5,63.8333 226.5,46.5C 230.434,46.0211 234.101,46.6878 237.5,48.5C 239.396,47.7255 241.063,46.7255 242.5,45.5 Z"/></g>
<g><path style="opacity:1" fill="#080808" d="M 275.5,45.5 C 282.909,44.6209 289.909,45.7875 296.5,49C 298.727,51.5641 300.561,54.3974 302,57.5C 302.667,67.5 302.667,77.5 302,87.5C 295.679,100.396 285.846,103.896 272.5,98C 268.806,95.3133 266.306,91.8133 265,87.5C 264.333,77.1667 264.333,66.8333 265,56.5C 267.357,51.6455 270.857,47.9788 275.5,45.5 Z"/></g>
<g><path style="opacity:1" fill="#060606" d="M 383.5,59.5 C 382.549,60.9187 382.216,62.5853 382.5,64.5C 378.833,64.5 375.167,64.5 371.5,64.5C 372.158,49.6793 379.824,43.5126 394.5,46C 400.333,47.8333 404.167,51.6667 406,57.5C 406.5,71.1626 406.667,84.8293 406.5,98.5C 403.193,98.9368 400.193,98.2702 397.5,96.5C 388.441,102.303 379.941,101.637 372,94.5C 367.163,85.1842 368.996,77.6842 377.5,72C 382.633,69.3445 387.966,67.1778 393.5,65.5C 395.853,58.7 393.52,55.5333 386.5,56C 384.574,56.4224 383.574,57.5891 383.5,59.5 Z"/></g>
<g><path style="opacity:1" fill="#010101" d="M 448.5,56.5 C 448.5,59.1667 448.5,61.8333 448.5,64.5C 445.167,64.5 441.833,64.5 438.5,64.5C 438.737,63.209 438.404,62.209 437.5,61.5C 436.669,56.011 433.669,54.3443 428.5,56.5C 427.667,57.5 426.833,58.5 426,59.5C 425.5,72.4957 425.333,85.4957 425.5,98.5C 421.833,98.5 418.167,98.5 414.5,98.5C 414.5,81.5 414.5,64.5 414.5,47.5C 418.111,47.0441 421.444,47.7108 424.5,49.5C 425.107,49.3764 425.44,49.0431 425.5,48.5C 433.443,43.8115 440.61,44.8115 447,51.5C 448.009,53.0249 448.509,54.6916 448.5,56.5 Z"/></g>
<g><path style="opacity:1" fill="#3f3f3f" d="M 425.5,48.5 C 425.44,49.0431 425.107,49.3764 424.5,49.5C 421.444,47.7108 418.111,47.0441 414.5,47.5C 414.5,64.5 414.5,81.5 414.5,98.5C 413.503,81.3414 413.17,64.008 413.5,46.5C 417.827,46.0157 421.827,46.6823 425.5,48.5 Z"/></g>
<g><path style="opacity:1" fill="#555555" d="M 463.5,46.5 C 467.5,46.5 471.5,46.5 475.5,46.5C 475.5,49.8333 475.5,53.1667 475.5,56.5C 475.167,56.5 474.833,56.5 474.5,56.5C 474.5,53.5 474.5,50.5 474.5,47.5C 470.629,47.815 466.962,47.4816 463.5,46.5 Z"/></g>
<g><path style="opacity:1" fill="#78d6a8" d="M 203.5,40.5 C 204.482,43.9619 204.815,47.6286 204.5,51.5C 208.833,51.5 213.167,51.5 217.5,51.5C 213.03,52.4861 208.363,52.8195 203.5,52.5C 203.5,48.5 203.5,44.5 203.5,40.5 Z"/></g>
<g><path style="opacity:1" fill="#f7f7f7" d="M 279.5,55.5 C 283.516,54.8999 287.016,55.8999 290,58.5C 290.667,67.8333 290.667,77.1667 290,86.5C 287.091,89.3939 283.591,90.2272 279.5,89C 278.333,88.5 277.5,87.6667 277,86.5C 276.333,77.1667 276.333,67.8333 277,58.5C 278.045,57.6266 278.878,56.6266 279.5,55.5 Z"/></g>
<g><path style="opacity:1" fill="#a7a7a7" d="M 474.5,56.5 C 474.833,56.5 475.167,56.5 475.5,56.5C 472.038,57.4816 468.371,57.815 464.5,57.5C 464.5,67.5 464.5,77.5 464.5,87.5C 463.506,77.3468 463.172,67.0135 463.5,56.5C 467.167,56.5 470.833,56.5 474.5,56.5 Z"/></g>
<g><path style="opacity:1" fill="#87dbb2" d="M 217.5,85.5 C 217.5,76.8333 217.5,68.1667 217.5,59.5C 210.833,59.5 204.167,59.5 197.5,59.5C 197.5,63.1667 197.5,66.8333 197.5,70.5C 196.517,66.7016 196.183,62.7016 196.5,58.5C 203.833,58.5 211.167,58.5 218.5,58.5C 218.827,67.6822 218.493,76.6822 217.5,85.5 Z"/></g>
<g><path style="opacity:1" fill="#616161" d="M 383.5,59.5 C 383.5,61.5 383.5,63.5 383.5,65.5C 379.298,65.8168 375.298,65.4834 371.5,64.5C 375.167,64.5 378.833,64.5 382.5,64.5C 382.216,62.5853 382.549,60.9187 383.5,59.5 Z"/></g>
<g><path style="opacity:1" fill="#575757" d="M 448.5,56.5 C 449.477,59.2869 449.81,62.2869 449.5,65.5C 445.5,65.5 441.5,65.5 437.5,65.5C 437.5,64.1667 437.5,62.8333 437.5,61.5C 438.404,62.209 438.737,63.209 438.5,64.5C 441.833,64.5 445.167,64.5 448.5,64.5C 448.5,61.8333 448.5,59.1667 448.5,56.5 Z"/></g>
<g><path style="opacity:1" fill="#f7f7f7" d="M 391.5,75.5 C 392.5,75.5 393.5,75.5 394.5,75.5C 397.371,87.1273 393.204,91.4607 382,88.5C 381.333,86.1667 381.333,83.8333 382,81.5C 384.843,78.8373 388.009,76.8373 391.5,75.5 Z"/></g>
<g><path style="opacity:1" fill="#959595" d="M 474.5,80.5 C 478.298,79.5166 482.298,79.1832 486.5,79.5C 486.802,82.0593 486.468,84.3926 485.5,86.5C 485.5,84.5 485.5,82.5 485.5,80.5C 481.833,80.5 478.167,80.5 474.5,80.5 Z"/></g>
</svg>
